<svg width="32" height="32" viewBox="0 0 32 32" fill="none" xmlns="http://www.w3.org/2000/svg">
<path d="M25.3333 9.3335H6.66658C6.17325 9.3335 5.71992 9.6135 5.47992 10.0535C5.36647 10.2709 5.31516 10.5153 5.33162 10.76C5.34809 11.0046 5.4317 11.24 5.57325 11.4402L14.9066 24.7735C15.0289 24.9503 15.1923 25.0949 15.3827 25.1947C15.5731 25.2945 15.7849 25.3467 15.9999 25.3467C16.2149 25.3467 16.4267 25.2945 16.6172 25.1947C16.8076 25.0949 16.971 24.9503 17.0933 24.7735L26.4266 11.4402C26.7066 11.0268 26.7466 10.5068 26.5199 10.0535C26.4073 9.8361 26.237 9.65391 26.0277 9.52691C25.8183 9.39991 25.5781 9.33299 25.3333 9.3335Z" fill="#159642"/>
</svg>
