<svg width="29" height="24" viewBox="0 0 29 24" fill="none" xmlns="http://www.w3.org/2000/svg">
<path d="M7.5 7.66952V6.69952C7.5 4.44952 9.31 2.23952 11.56 2.02952C14.24 1.76952 16.5 3.87952 16.5 6.50952V7.88952" stroke="#2F7D45" stroke-width="1.5" stroke-miterlimit="10" stroke-linecap="round" stroke-linejoin="round"/>
<path d="M8.99983 22H14.9998C19.0198 22 19.7398 20.39 19.9498 18.43L20.6998 12.43C20.9698 9.99 20.2698 8 15.9998 8H7.99983C3.72983 8 3.02983 9.99 3.29983 12.43L4.04983 18.43C4.25983 20.39 4.97983 22 8.99983 22Z" stroke="#2F7D45" stroke-width="1.5" stroke-miterlimit="10" stroke-linecap="round" stroke-linejoin="round"/>
<path d="M15.4956 12H15.5046" stroke="#2F7D45" stroke-width="2" stroke-linecap="round" stroke-linejoin="round"/>
<path d="M8.49463 12H8.50361" stroke="#2F7D45" stroke-width="2" stroke-linecap="round" stroke-linejoin="round"/>
<rect x="14" width="15" height="15" rx="7.5" fill="#FF5E00"/>
<path d="M21.59 11.5994C21.055 11.5994 20.5992 11.4538 20.2228 11.1626C19.8464 10.8691 19.5587 10.4441 19.3599 9.88778C19.161 9.32907 19.0616 8.65436 19.0616 7.86364C19.0616 7.07765 19.161 6.40649 19.3599 5.85014C19.5611 5.29143 19.8499 4.86529 20.2264 4.57173C20.6052 4.2758 21.0597 4.12784 21.59 4.12784C22.1203 4.12784 22.5737 4.2758 22.9501 4.57173C23.3289 4.86529 23.6177 5.29143 23.8166 5.85014C24.0178 6.40649 24.1184 7.07765 24.1184 7.86364C24.1184 8.65436 24.019 9.32907 23.8201 9.88778C23.6212 10.4441 23.3336 10.8691 22.9572 11.1626C22.5808 11.4538 22.125 11.5994 21.59 11.5994ZM21.59 10.8182C22.1203 10.8182 22.5322 10.5625 22.8258 10.0511C23.1194 9.53977 23.2661 8.81061 23.2661 7.86364C23.2661 7.2339 23.1987 6.69768 23.0637 6.25497C22.9311 5.81226 22.7394 5.47491 22.4884 5.2429C22.2399 5.01089 21.9404 4.89489 21.59 4.89489C21.0644 4.89489 20.6537 5.15412 20.3578 5.67259C20.0618 6.18868 19.9139 6.91903 19.9139 7.86364C19.9139 8.49337 19.9802 9.02841 20.1127 9.46875C20.2453 9.90909 20.4359 10.2441 20.6845 10.4737C20.9354 10.7034 21.2373 10.8182 21.59 10.8182Z" fill="#FEFAEF"/>
</svg>
