<svg width="40" height="40" viewBox="0 0 40 40" fill="none" xmlns="http://www.w3.org/2000/svg">
<g clip-path="url(#clip0_730_3569)">
<mask id="mask0_730_3569" style="mask-type:luminance" maskUnits="userSpaceOnUse" x="0" y="0" width="40" height="40">
<path d="M40 0H0V40H40V0Z" fill="white"/>
</mask>
<g mask="url(#mask0_730_3569)">
<path d="M20 40C31.0457 40 40 31.0457 40 20C40 8.9543 31.0457 0 20 0C8.9543 0 0 8.9543 0 20C0 31.0457 8.9543 40 20 40Z" fill="#FFFEFC"/>
<path fill-rule="evenodd" clip-rule="evenodd" d="M25 11H15C12.7909 11 11 12.7909 11 15V25C11 27.2091 12.7909 29 15 29H25C27.2091 29 29 27.2091 29 25V15C29 12.7909 27.2091 11 25 11ZM15 9C11.6863 9 9 11.6863 9 15V25C9 28.3137 11.6863 31 15 31H25C28.3137 31 31 28.3137 31 25V15C31 11.6863 28.3137 9 25 9H15ZM20 23C21.6569 23 23 21.6569 23 20C23 18.3431 21.6569 17 20 17C18.3431 17 17 18.3431 17 20C17 21.6569 18.3431 23 20 23ZM20 25C22.7614 25 25 22.7614 25 20C25 17.2386 22.7614 15 20 15C17.2386 15 15 17.2386 15 20C15 22.7614 17.2386 25 20 25ZM26 15C26.5523 15 27 14.5523 27 14C27 13.4477 26.5523 13 26 13C25.4477 13 25 13.4477 25 14C25 14.5523 25.4477 15 26 15Z" fill="#00A439"/>
</g>
</g>
<defs>
<clipPath id="clip0_730_3569">
<rect width="40" height="40" fill="white"/>
</clipPath>
</defs>
</svg>
