<svg width="34" height="24" viewBox="0 0 34 24" fill="none" xmlns="http://www.w3.org/2000/svg">
<g clip-path="url(#clip0_730_3598)">
<path d="M30 0.5H4C2.067 0.5 0.5 2.067 0.5 4V20C0.5 21.933 2.067 23.5 4 23.5H30C31.933 23.5 33.5 21.933 33.5 20V4C33.5 2.067 31.933 0.5 30 0.5Z" fill="#FFFEFC"/>
<path fill-rule="evenodd" clip-rule="evenodd" d="M17.179 16.8307C15.9949 17.8288 14.459 18.4312 12.7807 18.4312C9.03582 18.4312 6 15.4316 6 11.7312C6 8.03094 9.03582 5.03125 12.7807 5.03125C14.459 5.03125 15.9949 5.63375 17.179 6.63179C18.363 5.63375 19.8989 5.03125 21.5773 5.03125C25.3221 5.03125 28.358 8.03094 28.358 11.7312C28.358 15.4316 25.3221 18.4312 21.5773 18.4312C19.8989 18.4312 18.363 17.8288 17.179 16.8307Z" fill="#ED0006"/>
<path fill-rule="evenodd" clip-rule="evenodd" d="M17.1787 16.8307C18.6366 15.6018 19.5611 13.7732 19.5611 11.7312C19.5611 9.68929 18.6366 7.86069 17.1787 6.63179C18.3627 5.63375 19.8986 5.03125 21.5769 5.03125C25.3218 5.03125 28.3576 8.03094 28.3576 11.7312C28.3576 15.4316 25.3218 18.4312 21.5769 18.4312C19.8986 18.4312 18.3627 17.8288 17.1787 16.8307Z" fill="#F9A000"/>
<path fill-rule="evenodd" clip-rule="evenodd" d="M17.1793 16.8317C18.6372 15.6028 19.5617 13.7742 19.5617 11.7322C19.5617 9.69031 18.6372 7.86172 17.1793 6.63281C15.7214 7.86172 14.7969 9.69031 14.7969 11.7322C14.7969 13.7742 15.7214 15.6028 17.1793 16.8317Z" fill="#FF5E00"/>
<path d="M30 0.5H4C2.067 0.5 0.5 2.067 0.5 4V20C0.5 21.933 2.067 23.5 4 23.5H30C31.933 23.5 33.5 21.933 33.5 20V4C33.5 2.067 31.933 0.5 30 0.5Z" stroke="#FEFAEF"/>
</g>
<defs>
<clipPath id="clip0_730_3598">
<rect width="34" height="24" fill="white"/>
</clipPath>
</defs>
</svg>
