<svg width="40" height="40" viewBox="0 0 40 40" fill="none" xmlns="http://www.w3.org/2000/svg">
<g clip-path="url(#clip0_730_3588)">
<mask id="mask0_730_3588" style="mask-type:luminance" maskUnits="userSpaceOnUse" x="0" y="0" width="40" height="40">
<path d="M40 0H0V40H40V0Z" fill="white"/>
</mask>
<g mask="url(#mask0_730_3588)">
<path d="M40 20C40 30.7031 31.0484 39.375 20 39.375C17.9355 39.375 15.9516 39.0703 14.0806 38.5078C14.8952 37.2188 16.1129 35.1094 16.5645 33.4297C16.8064 32.5234 17.8065 28.8203 17.8065 28.8203C18.4597 30.0234 20.3629 31.0469 22.3871 31.0469C28.4194 31.0469 32.7661 25.6719 32.7661 18.9922C32.7661 12.5938 27.371 7.80469 20.4355 7.80469C11.8065 7.80469 7.21774 13.4141 7.21774 19.5312C7.21774 22.375 8.78226 25.9141 11.2742 27.0391C11.6532 27.2109 11.8548 27.1328 11.9435 26.7812C12.0081 26.5156 12.3468 25.1953 12.5 24.5859C12.5484 24.3906 12.5242 24.2188 12.3629 24.0312C11.5484 23.0547 10.8871 21.2734 10.8871 19.6094C10.8871 15.3359 14.2258 11.2031 19.9194 11.2031C24.8306 11.2031 28.2742 14.4453 28.2742 19.0859C28.2742 24.3281 25.5403 27.9609 21.9839 27.9609C20.0242 27.9609 18.5484 26.3906 19.0242 24.4609C19.5887 22.1562 20.6774 19.6719 20.6774 18.0078C20.6774 16.5234 19.8548 15.2812 18.1452 15.2812C16.1371 15.2812 14.5242 17.2891 14.5242 19.9844C14.5242 21.7031 15.121 22.8594 15.121 22.8594C15.121 22.8594 13.1452 30.9688 12.7823 32.4844C12.379 34.1562 12.5403 36.5156 12.7097 38.0469C5.27419 35.2266 0 28.2109 0 20C0 9.29688 8.95161 0.625 20 0.625C31.0484 0.625 40 9.29688 40 20Z" fill="#FEFAEF"/>
</g>
</g>
<defs>
<clipPath id="clip0_730_3588">
<rect width="40" height="40" fill="white"/>
</clipPath>
</defs>
</svg>
