<svg width="34" height="24" viewBox="0 0 34 24" fill="none" xmlns="http://www.w3.org/2000/svg">
<g clip-path="url(#clip0_730_3594)">
<path d="M30 0.5H4C2.067 0.5 0.5 2.067 0.5 4V20C0.5 21.933 2.067 23.5 4 23.5H30C31.933 23.5 33.5 21.933 33.5 20V4C33.5 2.067 31.933 0.5 30 0.5Z" fill="#FFFEFC"/>
<path fill-rule="evenodd" clip-rule="evenodd" d="M10.7501 15.8598H8.69032L7.14575 9.79394C7.07244 9.51491 6.91678 9.26823 6.68781 9.15197C6.11639 8.85979 5.48671 8.62727 4.7998 8.50999V8.27646H8.11788C8.57582 8.27646 8.91929 8.62727 8.97653 9.03469L9.77792 13.4102L11.8367 8.27646H13.8392L10.7501 15.8598ZM14.9841 15.8598H13.0388L14.6406 8.27646H16.5859L14.9841 15.8598ZM19.1026 10.3773C19.1598 9.96884 19.5033 9.7353 19.904 9.7353C20.5336 9.67667 21.2195 9.79394 21.792 10.0851L22.1354 8.45237C21.563 8.21884 20.9333 8.10156 20.3619 8.10156C18.4739 8.10156 17.1001 9.15197 17.1001 10.6098C17.1001 11.7188 18.0732 12.3012 18.7601 12.652C19.5033 13.0018 19.7895 13.2353 19.7322 13.5851C19.7322 14.1098 19.1598 14.3433 18.5884 14.3433C17.9015 14.3433 17.2145 14.1684 16.5859 13.8763L16.2424 15.51C16.9293 15.8012 17.6725 15.9185 18.3594 15.9185C20.4764 15.9761 21.792 14.9267 21.792 13.3516C21.792 11.368 19.1026 11.2518 19.1026 10.3773ZM28.5998 15.8598L27.0553 8.27646H25.3963C25.0528 8.27646 24.7093 8.50999 24.5949 8.85979L21.7347 15.8598H23.7372L24.1369 14.7518H26.5974L26.8263 15.8598H28.5998ZM25.6825 10.3186L26.2539 13.1767H24.6521L25.6825 10.3186Z" fill="#172B85"/>
<path d="M30 0.5H4C2.067 0.5 0.5 2.067 0.5 4V20C0.5 21.933 2.067 23.5 4 23.5H30C31.933 23.5 33.5 21.933 33.5 20V4C33.5 2.067 31.933 0.5 30 0.5Z" stroke="#FEFAEF"/>
</g>
<defs>
<clipPath id="clip0_730_3594">
<rect width="34" height="24" fill="white"/>
</clipPath>
</defs>
</svg>
