<svg width="174" height="33" viewBox="0 0 174 33" fill="none" xmlns="http://www.w3.org/2000/svg">
<g clip-path="url(#clip0_291_340)">
<path d="M79.6686 6.3299H76.8069C76.531 6.3299 76.2907 6.42783 76.0904 6.63259C75.8901 6.83289 75.7878 7.07326 75.7878 7.34923V21.3929H70.7053V7.34923C70.7053 7.07326 70.6029 6.83289 70.4027 6.63259C70.2024 6.43228 69.9621 6.3299 69.6861 6.3299H66.8245C66.5485 6.3299 66.3082 6.42783 66.1079 6.63259C65.9076 6.83289 65.8053 7.07326 65.8053 7.34923V21.3929H60.7228V7.34923C60.7228 7.07326 60.6249 6.83289 60.4202 6.63259C60.2199 6.43228 59.9796 6.3299 59.7037 6.3299H56.842C56.5661 6.3299 56.3257 6.42783 56.1299 6.63259C55.9296 6.83289 55.8273 7.07326 55.8273 7.34923V20.4537C55.2799 20.8676 54.3853 21.5798 53.1258 21.6021C52.8677 21.6065 52.2491 21.4463 52.1156 20.8231C52.0443 20.4804 52.0622 20.1065 52.0399 19.7014C52.0399 19.5901 52.0443 19.4878 52.0488 19.372C52.0755 18.4996 52.031 17.6093 52.031 16.7369V13.8258C52.031 12.5438 51.8307 11.4132 51.4302 10.4206C51.0296 9.42796 50.4555 8.60893 49.7167 7.9546C48.978 7.30027 48.0923 6.80618 47.0598 6.46789C46.0317 6.1296 44.879 5.96045 43.5973 5.96045C42.3156 5.96045 41.194 6.1296 40.2283 6.46789C39.2581 6.80618 38.4436 7.23795 37.7805 7.76765C37.1174 8.2929 36.6011 8.8582 36.2362 9.46357C35.8712 10.0645 35.6398 10.6298 35.5374 11.155C35.4885 11.4088 35.5508 11.6046 35.7244 11.756C35.8979 11.9073 36.1116 11.983 36.3652 11.983H39.8678C40.0948 11.983 40.3039 11.9429 40.4909 11.8672C40.6822 11.7916 40.8869 11.6536 41.1139 11.4533C41.4388 11.1506 41.7771 10.9147 42.1286 10.7411C42.4802 10.5675 42.9698 10.4785 43.5973 10.4785C44.5987 10.4785 45.4443 10.6921 46.1207 11.1194C46.7972 11.5468 47.1399 12.2723 47.1399 13.3005L41.0027 14.3555C38.9465 14.7071 37.3043 15.3704 36.076 16.3496C34.8432 17.3245 34.229 18.6821 34.229 20.4181C34.229 20.5071 34.2513 20.5828 34.2513 20.6673C34.2824 21.4196 34.4159 22.1273 34.7008 22.7683C35.0167 23.485 35.4618 24.1037 36.0359 24.6334C36.6145 25.1586 37.3265 25.5681 38.181 25.8575C38.4614 25.951 38.7774 26.0088 39.0845 26.0711C39.2403 26.1023 39.3827 26.1557 39.5473 26.1824C39.7966 26.218 40.077 26.2225 40.3395 26.2403C40.5843 26.2581 40.8157 26.2937 41.0783 26.2937C42.6048 26.2937 43.8643 26.0355 44.8568 25.5236C45.4621 25.212 46.0406 24.8248 46.5302 24.353C46.6726 24.215 46.9975 23.9167 47.2289 23.712C47.3669 23.5918 47.4915 23.4583 47.6117 23.3247C47.6517 23.4449 47.6873 23.5651 47.7318 23.6808C48.4083 25.4168 50.3487 26.0177 51.3545 26.1869C52.8276 26.4361 54.6568 26.1602 56.0008 25.4346C56.0409 25.4969 56.0721 25.5637 56.1255 25.6171C56.3257 25.8174 56.5616 25.9198 56.8375 25.9198H79.6508C79.9267 25.9198 80.1626 25.8219 80.3673 25.6171C80.5676 25.4168 80.67 25.1764 80.67 24.9005V7.34923C80.67 7.07326 80.572 6.83289 80.3673 6.63259C80.1626 6.43228 79.9267 6.3299 79.6508 6.3299H79.6686ZM47.1488 17.5515C47.1488 18.0767 47.0331 18.5931 46.8106 19.096C46.5836 19.599 46.2453 20.0486 45.7914 20.4492C45.3419 20.8498 44.7811 21.1703 44.118 21.4107C43.4549 21.6511 42.6939 21.7712 41.8394 21.7712C41.1095 21.7712 40.4775 21.6466 39.939 21.3929C39.4005 21.1392 39.129 20.7519 39.129 20.2267C39.129 19.648 39.356 19.194 39.8055 18.8512C40.255 18.5129 40.9982 18.2548 42.0263 18.0812L47.1488 17.1776V17.5559V17.5515Z" fill="#159642"/>
<path d="M37.1528 27.9894C34.0241 26.9522 32.2973 25.7593 31.8567 21.3659C31.3315 16.1135 31.6252 1.01933 31.6252 1.01933C31.6252 0.743356 31.5229 0.50299 31.3226 0.302684C31.1223 0.102378 30.882 0 30.6061 0H27.5575C27.2816 0 27.0412 0.102378 26.8454 0.302684C26.6451 0.50299 26.5428 0.743356 26.5428 1.01933V10.6963H15.1717V1.54458V1.55348V1.2686C15.1717 0.992626 15.0738 0.752259 14.8691 0.551953C14.6688 0.351648 14.4285 0.249269 14.157 0.249269H11.1084C11.1084 0.249269 11.104 0.249269 11.0995 0.249269C10.699 0.249269 10.2539 0.267074 9.83115 0.267074C4.13896 0.271525 0 2.61288 0 8.27485C0 13.9368 4.58846 15.4324 7.5881 15.3879C7.78837 15.3879 8.10436 15.2944 8.30463 15.0941C8.5049 14.8938 8.60726 14.6535 8.60726 14.3775V11.7735C8.60726 11.4975 8.5049 11.2572 8.30463 11.0613C8.10436 10.861 7.86848 10.7764 7.59255 10.7675C6.28855 10.7097 4.81989 10.3936 4.81989 8.27485C4.81989 5.9246 6.43542 5.46612 7.94859 5.42606C8.55831 5.40825 9.43061 5.386 10.0893 5.42606L10.1204 25.5011C10.1516 25.7237 10.2317 25.924 10.3919 26.0753C10.5922 26.2623 10.8325 26.3558 11.1084 26.3558H14.157C14.433 26.3558 14.6688 26.2578 14.8736 26.0531C15.0738 25.8528 15.1762 25.6124 15.1762 25.3364V15.3968H26.5472C26.5472 15.3968 26.4582 20.6671 26.9122 24.0189C27.6777 29.6408 33.757 32.5964 36.7923 32.7655C36.859 32.7655 36.9925 32.7655 37.0638 32.7655C37.3397 32.7655 37.58 32.6632 37.7803 32.4629C37.9806 32.2626 38.0829 32.0222 38.0829 31.7462V28.9998C38.0829 28.7238 37.9806 28.4835 37.7803 28.2876C37.58 28.0918 37.3931 28.0695 37.1572 27.9894H37.1528Z" fill="#159642"/>
<path d="M173.863 23.4136L172.701 21.6153C172.581 21.4373 172.394 21.3394 172.141 21.3216C171.887 21.3037 171.665 21.3839 171.406 21.5174C170.895 21.78 170.165 22.2073 169.137 22.1539C166.929 22.0471 161.553 15.9267 161.549 15.9267L170.312 7.9901C170.512 7.83876 170.632 7.70967 170.668 7.59394C170.708 7.48266 170.725 7.36248 170.725 7.23784C170.725 7.00638 170.641 6.78381 170.481 6.61467C170.303 6.42772 170.08 6.33424 169.822 6.33424H166.244C165.892 6.33424 165.594 6.40991 165.358 6.56125C165.122 6.71259 164.926 6.85058 164.775 6.97522L157.85 13.3004V7.35357C157.85 7.0776 157.752 6.83723 157.548 6.63692C157.347 6.43662 157.107 6.33424 156.835 6.33424H153.974C153.698 6.33424 153.458 6.43217 153.262 6.63692C153.061 6.83723 152.959 7.0776 152.959 7.35357V20.9699C152.443 21.2904 151.802 21.5931 150.996 21.6109C150.738 21.6153 150.071 21.464 149.986 20.8319C149.884 20.044 149.915 19.4965 149.919 19.3808C149.946 18.5084 149.902 17.6181 149.902 16.7457V13.8346C149.902 12.5526 149.701 11.422 149.301 10.4294C148.9 9.43675 148.326 8.61772 147.587 7.96339C146.849 7.30906 145.963 6.81497 144.93 6.47668C143.902 6.13839 142.75 5.96924 141.468 5.96924C140.186 5.96924 139.065 6.13839 138.099 6.47668C137.129 6.81497 136.314 7.24674 135.651 7.77644C134.988 8.30169 134.472 8.86699 134.107 9.47236C133.742 10.0733 133.51 10.6386 133.408 11.1638C133.359 11.4176 133.421 11.6134 133.595 11.7647C133.769 11.9161 133.982 11.9918 134.236 11.9918H137.738C137.965 11.9918 138.175 11.9517 138.361 11.876C138.548 11.8004 138.758 11.6624 138.985 11.4621C139.309 11.1594 139.648 10.9235 139.999 10.7499C140.351 10.5763 140.84 10.4872 141.468 10.4872C142.469 10.4872 143.315 10.7009 143.991 11.1282C144.668 11.5555 145.01 12.2811 145.01 13.3093L138.873 14.3643C136.817 14.7159 135.17 15.3836 133.942 16.3584C132.714 17.3377 132.1 18.6909 132.1 20.4224C132.1 20.7206 132.144 20.9966 132.18 21.277C131.766 21.4684 131.303 21.6242 130.756 21.6331C130.497 21.6376 129.879 21.4773 129.745 20.8542C129.674 20.5114 129.638 19.0425 129.63 18.6731C129.598 17.1196 129.625 15.1967 129.63 14.0349C129.638 12.3657 129.63 7.36248 129.63 7.36248C129.63 7.0865 129.532 6.84613 129.327 6.64583C129.122 6.44552 128.886 6.34314 128.61 6.34314H125.94C125.437 6.34314 125.086 6.43217 124.885 6.60577C124.685 6.78381 124.547 6.94406 124.471 7.0954L119.126 16.7724L113.781 7.0954C113.706 6.94406 113.568 6.78381 113.367 6.60577C113.167 6.43217 112.816 6.34314 112.313 6.34314H109.638C109.362 6.34314 109.122 6.44107 108.926 6.64583C108.726 6.84613 108.623 7.0865 108.623 7.36248V18.0721C107.417 18.9401 106.162 19.7325 104.8 20.3334C102.219 21.4773 100.572 21.8023 98.2224 21.8023C97.6972 21.8023 97.181 21.7222 96.6781 21.5575C96.1752 21.3928 95.7168 21.1435 95.3029 20.8052C94.889 20.4669 94.5418 20.0218 94.2703 19.4654C93.9944 18.9134 93.8208 18.2502 93.7452 17.4712C93.6962 17.0929 93.6695 16.6567 93.6695 16.1537C93.6695 15.6507 93.6962 15.21 93.7452 14.8361C93.8208 14.0571 93.9944 13.3939 94.2703 12.8419C94.5463 12.29 94.8934 11.8449 95.3029 11.5021C95.7168 11.1638 96.1752 10.9146 96.6781 10.7499C97.181 10.5852 97.6972 10.505 98.2224 10.505C98.8499 10.505 99.3751 10.554 99.8023 10.6564C100.23 10.7588 100.59 10.9012 100.893 11.0926C101.195 11.2796 101.449 11.4932 101.663 11.7336C101.876 11.974 102.081 12.241 102.286 12.5437C102.437 12.7707 102.611 12.9933 102.811 13.2203C103.011 13.4473 103.251 13.5586 103.527 13.5586H106.389C106.665 13.5586 106.91 13.4607 107.123 13.2559C107.337 13.0556 107.43 12.8152 107.408 12.5437C107.382 12.0185 107.195 11.3775 106.843 10.6252C106.491 9.87297 105.944 9.15187 105.205 8.45748C104.466 7.76754 103.514 7.18443 102.361 6.70814C101.209 6.23186 99.8246 5.99595 98.2224 5.99595C96.8427 5.99595 95.5921 6.22741 94.4751 6.69479C93.358 7.15772 92.3967 7.78534 91.5956 8.57766C90.7901 9.36553 90.1492 10.2914 89.673 11.3419C89.1968 12.3968 88.9208 13.5007 88.8452 14.6581C88.7962 15.1343 88.7695 15.6507 88.7695 16.2026C88.7695 16.7546 88.7918 17.2576 88.8452 17.7116C88.9431 18.8645 89.2279 19.9639 89.6908 21.0055C90.1536 22.0471 90.7945 22.9641 91.6134 23.7564C92.4278 24.5487 93.3891 25.1763 94.4929 25.6392C95.4453 26.0399 96.5713 26.2669 97.6127 26.2802C98.6363 26.2891 99.6109 26.3336 100.617 26.2135C102.9 25.9419 104.956 25.1852 107.048 24.2683C107.551 24.0457 108.147 23.6629 108.61 23.3736C108.614 23.3736 108.619 23.3647 108.628 23.3602V24.9226C108.628 25.1986 108.726 25.4389 108.93 25.6392C109.131 25.8396 109.366 25.9419 109.642 25.9419H112.504C112.78 25.9419 113.016 25.844 113.216 25.6392C113.416 25.4389 113.519 25.1986 113.519 24.9226V15.4726L117.097 21.7978C117.222 21.9981 117.386 22.2073 117.587 22.4166C117.787 22.6302 118.063 22.737 118.414 22.737H119.843C120.194 22.737 120.47 22.6302 120.671 22.4166C120.871 22.2029 121.036 21.9981 121.16 21.7978L124.734 15.4726L124.743 19.6078V20.0975C124.743 21.5308 124.948 22.648 125.366 23.7208C126.042 25.4568 127.983 26.0577 128.989 26.2268C130.551 26.4894 132.527 26.1823 133.884 25.3588C133.942 25.3232 133.996 25.2832 134.049 25.2475C134.16 25.1674 134.263 25.0784 134.369 24.9983C134.859 25.3544 135.402 25.666 136.052 25.8841C136.906 26.1734 137.872 26.3158 138.949 26.3158C140.48 26.3158 141.739 26.0577 142.732 25.5458C143.337 25.2297 143.916 24.8469 144.405 24.3751C144.552 24.2371 144.873 23.9389 145.104 23.7341C145.242 23.6139 145.367 23.4804 145.487 23.3469C145.527 23.467 145.562 23.5872 145.607 23.703C146.283 25.4389 148.224 26.0399 149.23 26.209C150.52 26.4271 152.078 26.2357 153.351 25.7016C153.533 25.8529 153.738 25.9419 153.974 25.9419H156.835C157.111 25.9419 157.347 25.844 157.548 25.6392C157.748 25.4345 157.85 25.1986 157.85 24.9226V19.0114H157.855C157.855 19.0114 162.425 22.7949 163.872 24.2416C164.971 25.341 166.408 26.0933 167.361 26.2313C168.923 26.4627 170.903 26.1823 172.256 25.4612C172.595 25.2832 173.173 24.9003 173.454 24.6689C173.667 24.4953 173.836 24.3172 173.916 24.0724C173.997 23.8276 173.974 23.6184 173.854 23.4403L173.863 23.4136ZM145.01 17.5469C145.01 18.0721 144.895 18.5885 144.672 19.0915C144.445 19.5945 144.107 20.044 143.653 20.4447C143.204 20.8453 142.643 21.1658 141.98 21.4061C141.317 21.6465 140.556 21.7667 139.701 21.7667C138.971 21.7667 138.339 21.642 137.801 21.3883C137.262 21.1346 136.991 20.7473 136.991 20.2221C136.991 19.6434 137.218 19.1894 137.667 18.8467C138.117 18.5084 138.86 18.2502 139.888 18.0766L145.01 17.173V17.5514V17.5469Z" fill="#159642"/>
</g>
<defs>
<clipPath id="clip0_291_340">
<rect width="173.97" height="32.77" fill="white"/>
</clipPath>
</defs>
</svg>
